<svg xmlns="http://www.w3.org/2000/svg" viewBox="0 0 64 64">
  <defs>
    <radialGradient id="g" cx="50%" cy="45%" r="60%">
      <stop offset="0%" stop-color="#f4e2b0"/>
      <stop offset="100%" stop-color="#b8862f"/>
    </radialGradient>
  </defs>
  <rect x="6" y="6" width="52" height="52" rx="12" fill="#1c140c"/>
  <circle cx="32" cy="30" r="16" fill="url(#g)"/>
  <g fill="#1c140c">
    <path d="M32 18c3 6 3 12 0 18-3-6-3-12 0-18z"/>
    <path d="M20 30c6-3 12-3 18 0-6 3-12 3-18 0z" transform="rotate(0 32 30)"/>
    <path d="M23 21c5 2 9 6 11 11-5-2-9-6-11-11z"/>
    <path d="M41 21c-5 2-9 6-11 11 5-2 9-6 11-11z"/>
  </g>
  <circle cx="32" cy="30" r="3.5" fill="#fff6dc"/>
</svg>
